<svg data-v-423bf9ae="" xmlns="http://www.w3.org/2000/svg" viewBox="0 0 594 90" class="iconLeft"><!----><!----><!----><g data-v-423bf9ae="" id="f7912c85-d1a1-4db1-ad09-c5c160caaf71" fill="white" transform="matrix(5.2356020768130564,0,0,5.2356020768130564,52.63655716616114,-28.03665094629706)"><path d="M6.43 17.02L6.43 17.02Q5.92 17.22 5.38 17.30L5.38 17.30L5.38 17.30Q4.83 17.39 4.09 17.39L4.09 17.39L4.09 17.39Q2.79 17.39 2.14 17.00L2.14 17.00L2.14 17.00Q1.50 16.60 1.25 15.65L1.25 15.65L1.25 15.65Q1.01 14.70 1.01 12.81L1.01 12.81L1.01 12.81Q1.01 10.91 1.26 9.95L1.26 9.95L1.26 9.95Q1.51 8.99 2.18 8.60L2.18 8.60L2.18 8.60Q2.86 8.22 4.20 8.22L4.20 8.22L4.20 8.22Q4.65 8.22 5.24 8.29L5.24 8.29L5.24 8.29Q5.82 8.37 6.20 8.50L6.20 8.50L6.06 9.44L6.06 9.44Q5.54 9.32 4.87 9.25L4.87 9.25L4.87 9.25Q4.20 9.18 3.79 9.18L3.79 9.18L3.79 9.18Q3.19 9.18 2.86 9.26L2.86 9.26L2.86 9.26Q2.53 9.34 2.37 9.57L2.37 9.57L2.37 9.57Q2.20 9.80 2.20 10.26L2.20 10.26L2.20 16.24L2.20 16.24Q2.93 16.46 3.98 16.46L3.98 16.46L3.98 16.46Q5.04 16.46 6.30 16.11L6.30 16.11L6.43 17.02ZM10.61 17.30L10.61 17.30Q9.37 17.30 8.76 17.02L8.76 17.02L8.76 17.02Q8.16 16.73 7.94 15.98L7.94 15.98L7.94 15.98Q7.71 15.23 7.71 13.68L7.71 13.68L7.71 13.68Q7.71 12.12 7.94 11.38L7.94 11.38L7.94 11.38Q8.16 10.63 8.76 10.34L8.76 10.34L8.76 10.34Q9.37 10.05 10.61 10.05L10.61 10.05L10.61 10.05Q11.87 10.05 12.47 10.33L12.47 10.33L12.47 10.33Q13.08 10.61 13.30 11.36L13.30 11.36L13.30 11.36Q13.52 12.11 13.52 13.68L13.52 13.68L13.52 13.68Q13.52 15.23 13.30 15.98L13.30 15.98L13.30 15.98Q13.08 16.73 12.47 17.02L12.47 17.02L12.47 17.02Q11.86 17.30 10.61 17.30L10.61 17.30ZM8.86 16.35L11.68 16.35L11.68 16.35Q12.10 16.35 12.24 16.28L12.24 16.28L12.24 16.28Q12.38 16.21 12.38 16.00L12.38 16.00L12.38 11.00L9.56 11.00L9.56 11.00Q9.14 11.00 9.00 11.07L9.00 11.07L9.00 11.07Q8.86 11.14 8.86 11.35L8.86 11.35L8.86 16.35ZM23.11 10.05L23.11 10.05Q25.07 10.05 25.07 11.16L25.07 11.16L25.07 17.18L23.95 17.18L23.95 10.96L22.32 10.96L22.32 10.96Q21.63 10.96 21.35 11.10L21.35 11.10L21.35 11.10Q21.07 11.24 21.01 11.62L21.01 11.62L21.01 17.18L19.89 17.18L19.89 10.96L18.26 10.96L18.26 10.96Q17.49 10.96 17.21 11.15L17.21 11.15L17.21 11.15Q16.94 11.34 16.94 11.86L16.94 11.86L16.94 17.18L15.82 17.18L15.82 10.18L16.31 10.18L16.63 10.88L16.63 10.88Q17.12 10.44 17.70 10.25L17.70 10.25L17.70 10.25Q18.27 10.05 19.05 10.05L19.05 10.05L19.05 10.05Q20.55 10.05 20.90 10.70L20.90 10.70L20.90 10.70Q21.34 10.36 21.88 10.21L21.88 10.21L21.88 10.21Q22.41 10.05 23.11 10.05L23.11 10.05ZM30.93 10.05L30.93 10.05Q31.98 10.05 32.48 10.33L32.48 10.33L32.48 10.33Q32.98 10.61 33.17 11.36L33.17 11.36L33.17 11.36Q33.35 12.11 33.35 13.68L33.35 13.68L33.35 13.68Q33.35 15.26 33.16 16.03L33.16 16.03L33.16 16.03Q32.97 16.80 32.47 17.09L32.47 17.09L32.47 17.09Q31.96 17.39 30.93 17.39L30.93 17.39L30.93 17.39Q30.14 17.39 29.65 17.31L29.65 17.31L29.65 17.31Q29.16 17.23 28.87 17.02L28.87 17.02L28.87 19.53L27.75 19.68L27.75 10.18L28.24 10.18L28.52 10.75L28.52 10.75Q28.78 10.35 29.34 10.20L29.34 10.20L29.34 10.20Q29.89 10.05 30.93 10.05L30.93 10.05ZM32.19 16.09L32.19 11.00L29.53 11.00L29.53 11.00Q29.15 11.00 29.01 11.06L29.01 11.06L29.01 11.06Q28.87 11.12 28.87 11.27L28.87 11.27L28.87 16.44L31.51 16.44L31.51 16.44Q31.92 16.44 32.05 16.37L32.05 16.37L32.05 16.37Q32.19 16.30 32.19 16.09L32.19 16.09ZM40.91 10.18L40.91 17.18L40.42 17.18L40.11 16.48L40.11 16.48Q39.56 16.91 38.90 17.11L38.90 17.11L38.90 17.11Q38.23 17.30 37.37 17.30L37.37 17.30L37.37 17.30Q36.44 17.30 36.01 16.98L36.01 16.98L36.01 16.98Q35.57 16.65 35.57 15.95L35.57 15.95L35.57 10.18L36.69 10.18L36.69 16.39L38.47 16.39L38.47 16.39Q39.24 16.39 39.52 16.21L39.52 16.21L39.52 16.21Q39.79 16.03 39.79 15.50L39.79 15.50L39.79 10.18L40.91 10.18ZM43.15 16.17L43.15 16.17Q43.68 16.30 44.44 16.38L44.44 16.38L44.44 16.38Q45.21 16.46 45.88 16.46L45.88 16.46L45.88 16.46Q46.59 16.46 47.54 16.38L47.54 16.38L47.54 13.41L46.20 13.31L46.20 13.31Q44.88 13.22 44.24 12.99L44.24 12.99L44.24 12.99Q43.60 12.77 43.34 12.29L43.34 12.29L43.34 12.29Q43.09 11.82 43.09 10.86L43.09 10.86L43.09 10.86Q43.09 9.88 43.34 9.31L43.34 9.31L43.34 9.31Q43.58 8.74 44.12 8.48L44.12 8.48L44.12 8.48Q44.66 8.22 45.58 8.22L45.58 8.22L45.58 8.22Q46.98 8.22 48.31 8.46L48.31 8.46L48.17 9.34L48.17 9.34Q47.15 9.14 45.56 9.14L45.56 9.14L45.56 9.14Q44.83 9.14 44.32 9.21L44.32 9.21L44.32 12.21L45.98 12.31L45.98 12.31Q47.10 12.38 47.69 12.62L47.69 12.62L47.69 12.62Q48.29 12.87 48.53 13.39L48.53 13.39L48.53 13.39Q48.78 13.92 48.78 14.88L48.78 14.88L48.78 14.88Q48.78 15.85 48.49 16.39L48.49 16.39L48.49 16.39Q48.20 16.93 47.53 17.16L47.53 17.16L47.53 17.16Q46.86 17.39 45.64 17.39L45.64 17.39L45.64 17.39Q44.25 17.39 42.98 17.08L42.98 17.08L43.15 16.17ZM53.06 16.38L53.06 16.38Q53.63 16.38 54.17 16.31L54.17 16.31L54.17 16.31Q54.70 16.24 55.47 16.06L55.47 16.06L55.62 16.90L55.62 16.90Q55.15 17.08 54.39 17.19L54.39 17.19L54.39 17.19Q53.63 17.30 52.82 17.30L52.82 17.30L52.82 17.30Q51.76 17.30 51.23 17.01L51.23 17.01L51.23 17.01Q50.71 16.72 50.51 15.95L50.51 15.95L50.51 15.95Q50.30 15.19 50.30 13.68L50.30 13.68L50.30 13.68Q50.30 12.24 50.55 11.47L50.55 11.47L50.55 11.47Q50.79 10.70 51.39 10.37L51.39 10.37L51.39 10.37Q51.98 10.05 53.10 10.05L53.10 10.05L53.10 10.05Q54.21 10.05 54.77 10.23L54.77 10.23L54.77 10.23Q55.34 10.40 55.57 10.83L55.57 10.83L55.57 10.83Q55.80 11.26 55.80 12.10L55.80 12.10L55.80 12.10Q55.80 13.16 55.53 13.59L55.53 13.59L55.53 13.59Q55.26 14.03 54.40 14.17L54.40 14.17L54.40 14.17Q53.55 14.31 51.46 14.31L51.46 14.31L51.46 16.21L51.46 16.21Q52.07 16.38 53.06 16.38L53.06 16.38ZM52.67 11.02L52.67 11.02Q51.97 11.02 51.72 11.20L51.72 11.20L51.72 11.20Q51.46 11.38 51.46 11.89L51.46 11.89L51.46 13.50L53.58 13.50L53.58 13.50Q54.29 13.50 54.54 13.31L54.54 13.31L54.54 13.31Q54.80 13.13 54.80 12.64L54.80 12.64L54.80 11.02L52.67 11.02ZM58.24 17.18L58.24 10.18L58.73 10.18L59.05 10.88L59.05 10.88Q59.56 10.44 60.17 10.25L60.17 10.25L60.17 10.25Q60.79 10.05 61.61 10.05L61.61 10.05L61.61 10.05Q63.57 10.05 63.57 11.16L63.57 11.16L63.57 17.18L62.45 17.18L62.45 10.96L60.68 10.96L60.68 10.96Q59.91 10.96 59.63 11.15L59.63 11.15L59.63 11.15Q59.36 11.34 59.36 11.86L59.36 11.86L59.36 17.18L58.24 17.18ZM65.73 12.00L65.73 12.00Q65.73 10.95 66.35 10.46L66.35 10.46L66.35 10.46Q66.96 9.97 68.28 9.97L68.28 9.97L68.28 9.97Q69.40 9.97 70.46 10.28L70.46 10.28L70.29 11.12L70.29 11.12Q69.93 11.02 69.45 10.95L69.45 10.95L69.45 10.95Q68.96 10.88 68.57 10.88L68.57 10.88L68.57 10.88Q67.70 10.88 66.89 11.00L66.89 11.00L66.89 12.89L66.89 12.89Q68.64 13.15 69.44 13.39L69.44 13.39L69.44 13.39Q70.24 13.64 70.53 14.04L70.53 14.04L70.53 14.04Q70.81 14.45 70.81 15.25L70.81 15.25L70.81 15.25Q70.81 16.04 70.54 16.51L70.54 16.51L70.54 16.51Q70.27 16.97 69.65 17.18L69.65 17.18L69.65 17.18Q69.03 17.39 67.98 17.39L67.98 17.39L67.98 17.39Q66.86 17.39 65.56 17.00L65.56 17.00L65.76 16.06L65.76 16.06Q66.85 16.48 68.07 16.48L68.07 16.48L68.07 16.48Q68.56 16.48 68.88 16.44L68.88 16.44L68.88 16.44Q69.20 16.39 69.65 16.25L69.65 16.25L69.65 14.39L69.65 14.39Q67.75 14.10 66.98 13.87L66.98 13.87L66.98 13.87Q66.22 13.65 65.98 13.26L65.98 13.26L65.98 13.26Q65.73 12.87 65.73 12.00L65.73 12.00ZM75.18 16.38L75.18 16.38Q75.75 16.38 76.29 16.31L76.29 16.31L76.29 16.31Q76.82 16.24 77.59 16.06L77.59 16.06L77.74 16.90L77.74 16.90Q77.27 17.08 76.51 17.19L76.51 17.19L76.51 17.19Q75.75 17.30 74.94 17.30L74.94 17.30L74.94 17.30Q73.88 17.30 73.35 17.01L73.35 17.01L73.35 17.01Q72.83 16.72 72.63 15.95L72.63 15.95L72.63 15.95Q72.42 15.19 72.42 13.68L72.42 13.68L72.42 13.68Q72.42 12.24 72.67 11.47L72.67 11.47L72.67 11.47Q72.91 10.70 73.51 10.37L73.51 10.37L73.51 10.37Q74.10 10.05 75.22 10.05L75.22 10.05L75.22 10.05Q76.33 10.05 76.90 10.23L76.90 10.23L76.90 10.23Q77.46 10.40 77.69 10.83L77.69 10.83L77.69 10.83Q77.92 11.26 77.92 12.10L77.92 12.10L77.92 12.10Q77.92 13.16 77.65 13.59L77.65 13.59L77.65 13.59Q77.38 14.03 76.52 14.17L76.52 14.17L76.52 14.17Q75.67 14.31 73.58 14.31L73.58 14.31L73.58 16.21L73.58 16.21Q74.19 16.38 75.18 16.38L75.18 16.38ZM74.79 11.02L74.79 11.02Q74.09 11.02 73.84 11.20L73.84 11.20L73.84 11.20Q73.58 11.38 73.58 11.89L73.58 11.89L73.58 13.50L75.70 13.50L75.70 13.50Q76.41 13.50 76.66 13.31L76.66 13.31L76.66 13.31Q76.92 13.13 76.92 12.64L76.92 12.64L76.92 11.02L74.79 11.02ZM80.53 18.56L80.02 18.41L80.26 17.25L80.26 17.25Q79.97 17.19 79.86 17.02L79.86 17.02L79.86 17.02Q79.74 16.84 79.74 16.41L79.74 16.41L79.74 16.41Q79.74 15.92 79.92 15.74L79.92 15.74L79.92 15.74Q80.09 15.55 80.57 15.55L80.57 15.55L80.57 15.55Q80.99 15.55 81.16 15.74L81.16 15.74L81.16 15.74Q81.33 15.93 81.33 16.41L81.33 16.41L81.33 16.41Q81.33 16.72 80.98 17.58L80.98 17.58L80.53 18.56ZM87.09 8.43L88.21 8.43L88.21 17.18L87.09 17.18L87.09 8.43ZM90.96 17.18L90.96 10.18L91.45 10.18L91.77 10.88L91.77 10.88Q92.27 10.44 92.89 10.25L92.89 10.25L92.89 10.25Q93.51 10.05 94.33 10.05L94.33 10.05L94.33 10.05Q96.29 10.05 96.29 11.16L96.29 11.16L96.29 17.18L95.17 17.18L95.17 10.96L93.39 10.96L93.39 10.96Q92.62 10.96 92.35 11.15L92.35 11.15L92.35 11.15Q92.08 11.34 92.08 11.86L92.08 11.86L92.08 17.18L90.96 17.18ZM100.90 17.30L100.90 17.30Q99.88 17.30 99.39 17.02L99.39 17.02L99.39 17.02Q98.90 16.73 98.71 15.97L98.71 15.97L98.71 15.97Q98.52 15.22 98.52 13.68L98.52 13.68L98.52 13.68Q98.52 12.12 98.71 11.38L98.71 11.38L98.71 11.38Q98.90 10.63 99.39 10.34L99.39 10.34L99.39 10.34Q99.88 10.05 100.90 10.05L100.90 10.05L100.90 10.05Q102.16 10.05 103.15 10.29L103.15 10.29L103.00 11.19L103.00 11.19Q101.91 10.98 100.94 10.98L100.94 10.98L100.94 10.98Q100.23 10.98 99.95 11.24L99.95 11.24L99.95 11.24Q99.67 11.51 99.67 12.18L99.67 12.18L99.67 16.21L99.67 16.21Q100.21 16.38 101.23 16.38L101.23 16.38L101.23 16.38Q101.68 16.38 102.11 16.31L102.11 16.31L102.11 16.31Q102.54 16.24 103.17 16.06L103.17 16.06L103.31 16.90L103.31 16.90Q102.86 17.09 102.21 17.20L102.21 17.20L102.21 17.20Q101.57 17.30 100.90 17.30L100.90 17.30Z"></path></g><!----><g data-v-423bf9ae="" id="1ab14d08-64b9-4a29-885f-a68e55a17730" transform="matrix(1.4150942038199752,0,0,1.4150942038199752,-51.11320023080117,-25.55471403448594)" stroke="none" fill="white"><path d="M45.2 29.5h-2v-7.7h-2.7v-3.6h-2.2v17.1h6.9zM55 29.5h2v-7.7h2.8v-3.6h2.1v17.1H55zM43.2 18.4h1.9v1.9h-1.9zM47.1 18.4H49v1.9h-1.9zM51 18.4h1.9v1.9H51zM54.8 18.4h1.9v1.9h-1.9zM45 22h10.1v5.8H45z"></path><path d="M53.1 41s-1.3.9-3 .9-3-.9-3-.9V26.8h6V41z"></path><path d="M58.3 38.1c-1.3 3.4-4.5 5.6-8.3 5.6s-6.9-2.1-8.3-5.6h-5.2v15.5l6 14.7h14.6l6.2-14.7V38.1h-5z"></path><g><path d="M46.9 62.5H53v19.3h-6.1z"></path></g></g><!----></svg>